<svg xmlns="http://www.w3.org/2000/svg" version="1.1" xmlns:xlink="http://www.w3.org/1999/xlink" xmlns:svgjs="http://svgjs.dev/svgjs" width="1500" height="1500" viewBox="0 0 1500 1500"><rect width="1500" height="1500" fill="#ffffff"></rect><g transform="matrix(0.6666666666666666,0,0,0.6666666666666666,249.39493263237074,356.15209556543334)"><svg viewBox="0 0 396 311" data-background-color="#004051" preserveAspectRatio="xMidYMid meet" height="1178" width="1500" xmlns="http://www.w3.org/2000/svg" xmlns:xlink="http://www.w3.org/1999/xlink"><g id="tight-bounds" transform="matrix(1,0,0,1,0.24039332241886768,0.46778218907078895)"><svg viewBox="0 0 395.52 310.0634923001214" height="310.0634923001214" width="395.52"><g><svg viewBox="0 0 395.52 310.0634923001214" height="310.0634923001214" width="395.52"><g transform="matrix(1,0,0,1,0,159.86326857476317)"><svg viewBox="0 0 395.52 150.20022372535828" height="150.20022372535828" width="395.52"><g id="textblocktransform"><svg viewBox="0 0 395.52 150.20022372535828" height="150.20022372535828" width="395.52" id="textblock"><g><svg viewBox="0 0 395.52 150.20022372535828" height="150.20022372535828" width="395.52"><g transform="matrix(1,0,0,1,0,0)"><svg width="395.52" viewBox="-0.95469 -18.248649999999998 155.86602 59.190717980259386" height="150.20022372535828" data-palette-color="#32fd6b"><path d="M-0.955 13.68l14.091-31.929 13.129 5.794c2.653 1.171 4.406 2.837 5.259 4.999 0.847 2.159 0.719 4.489-0.385 6.99v0c-0.525 1.189-1.137 2.122-1.835 2.797-0.699 0.675-1.425 1.164-2.178 1.466-0.755 0.308-1.494 0.455-2.217 0.442-0.726-0.007-1.368-0.079-1.927-0.216v0l-0.121 0.274c0.566 0.286 1.148 0.725 1.747 1.318 0.592 0.589 1.078 1.321 1.458 2.195 0.377 0.88 0.583 1.882 0.619 3.006 0.027 1.127-0.248 2.346-0.827 3.657v0c-0.579 1.311-1.321 2.441-2.228 3.389-0.913 0.945-1.917 1.668-3.012 2.169-1.095 0.5-2.25 0.763-3.464 0.789-1.216 0.032-2.419-0.215-3.608-0.74v0zM9.429 0.555l-5.047 11.436 9.469 4.179c1.647 0.727 3.129 0.878 4.445 0.453 1.314-0.418 2.328-1.436 3.041-3.052v0l0.686-1.555c0.713-1.616 0.783-3.054 0.209-4.313-0.577-1.253-1.688-2.243-3.335-2.969v0zM15.485-13.168l-4.603 10.43 8.829 3.896c1.525 0.673 2.882 0.817 4.072 0.431 1.19-0.386 2.102-1.295 2.735-2.728v0l0.686-1.556c0.633-1.433 0.69-2.72 0.173-3.858-0.517-1.139-1.539-2.045-3.064-2.719v0zM41.27-4.13v0c-0.834-0.234-1.378-0.605-1.631-1.111-0.261-0.502-0.301-1.075-0.121-1.717v0l0.176-0.626c0.18-0.642 0.513-1.113 0.999-1.412 0.478-0.295 1.133-0.326 1.968-0.092v0c0.834 0.234 1.382 0.602 1.642 1.104 0.252 0.507 0.289 1.081 0.109 1.724v0l-0.176 0.626c-0.18 0.642-0.509 1.111-0.986 1.406-0.486 0.3-1.146 0.333-1.98 0.098zM30.742 25.997l6.968-24.842 3.851 1.081-6.968 24.841zM65.873 34.641v0c-0.361 2.642-1.657 4.443-3.888 5.404-2.236 0.953-5.418 1.147-9.546 0.582v0c-3.996-0.546-6.795-1.484-8.397-2.812-1.601-1.329-2.265-3.001-1.989-5.016v0c0.19-1.387 0.7-2.417 1.532-3.091 0.833-0.68 1.902-1.116 3.207-1.308v0l0.074-0.545c-1.42-0.934-2.017-2.227-1.791-3.878v0c0.176-1.288 0.723-2.216 1.642-2.783 0.918-0.561 2.043-0.919 3.376-1.073v0l0.027-0.198c-1.42-0.934-2.457-2.136-3.11-3.604-0.66-1.47-0.869-3.096-0.625-4.88v0c0.176-1.288 0.57-2.445 1.181-3.472 0.611-1.027 1.393-1.872 2.344-2.536 0.944-0.658 2.034-1.122 3.269-1.39 1.228-0.27 2.568-0.305 4.021-0.107v0c1.816 0.248 3.39 0.8 4.72 1.654v0l0.061-0.445c0.135-0.991 0.478-1.778 1.029-2.363 0.55-0.578 1.353-0.794 2.41-0.65v0l3.815 0.522-0.474 3.467-4.855-0.663-0.223 1.635c0.816 0.919 1.407 1.965 1.771 3.139 0.357 1.179 0.441 2.462 0.251 3.849v0c-0.176 1.288-0.57 2.445-1.181 3.472-0.611 1.027-1.389 1.869-2.334 2.527-0.952 0.664-2.052 1.129-3.299 1.397-1.248 0.267-2.598 0.301-4.051 0.102v0c-0.826-0.113-1.64-0.308-2.443-0.586v0c-0.89 0.114-1.712 0.345-2.467 0.692-0.755 0.354-1.187 0.928-1.295 1.721v0c-0.104 0.76 0.19 1.321 0.88 1.685 0.69 0.363 1.614 0.624 2.77 0.782v0l5.449 0.744c3.171 0.433 5.394 1.349 6.67 2.749 1.268 1.405 1.758 3.164 1.469 5.277zM62.117 34.431v0c0.14-1.024-0.135-1.892-0.825-2.606-0.695-0.721-2.034-1.217-4.016-1.487v0l-8.521-1.165c-1.685 0.51-2.635 1.558-2.851 3.143v0c-0.153 1.123 0.138 2.138 0.875 3.047 0.731 0.907 2.103 1.499 4.118 1.774v0l3.666 0.5c2.213 0.302 3.978 0.19 5.294-0.336 1.317-0.527 2.07-1.483 2.26-2.87zM55.273 18.407v0c1.684 0.23 3.077 0.007 4.179-0.671 1.101-0.67 1.766-1.848 1.997-3.532v0l0.189-1.387c0.23-1.684-0.095-3-0.974-3.948-0.881-0.941-2.163-1.527-3.847-1.758v0c-1.684-0.23-3.077-0.01-4.178 0.661-1.102 0.677-1.768 1.858-1.998 3.542v0l-0.19 1.387c-0.23 1.684 0.095 2.997 0.976 3.939 0.88 0.948 2.162 1.537 3.846 1.767zM73.469 31.62l-1.135-34.882 14.342-0.466c2.898-0.094 5.2 0.648 6.906 2.226 1.699 1.579 2.593 3.734 2.682 6.466v0c0.042 1.299-0.105 2.405-0.442 3.317-0.337 0.911-0.78 1.666-1.327 2.264-0.547 0.605-1.15 1.058-1.807 1.359-0.657 0.308-1.267 0.521-1.83 0.64v0l0.01 0.3c0.634 0.013 1.349 0.156 2.145 0.431 0.789 0.274 1.544 0.723 2.265 1.347 0.721 0.63 1.341 1.444 1.86 2.44 0.513 1.004 0.793 2.222 0.839 3.655v0c0.047 1.433-0.133 2.772-0.539 4.02-0.413 1.247-1.005 2.334-1.775 3.259-0.77 0.926-1.697 1.663-2.78 2.212-1.083 0.555-2.273 0.854-3.572 0.896v0zM77.14 15.292l0.406 12.493 10.345-0.336c1.799-0.059 3.2-0.564 4.203-1.518 1.003-0.946 1.476-2.303 1.418-4.068v0l-0.055-1.699c-0.057-1.766-0.618-3.092-1.68-3.978-1.062-0.879-2.493-1.29-4.293-1.231v0zM76.652 0.3l0.371 11.394 9.645-0.314c1.666-0.054 2.952-0.513 3.857-1.376 0.906-0.863 1.333-2.078 1.282-3.644v0l-0.055-1.699c-0.051-1.566-0.556-2.75-1.516-3.553-0.96-0.803-2.273-1.177-3.939-1.122v0zM117.675 26.94v0c-1.687 0.399-3.301 0.455-4.841 0.169-1.541-0.287-2.94-0.891-4.199-1.813-1.264-0.914-2.362-2.11-3.294-3.589-0.93-1.472-1.633-3.214-2.109-5.225v0c-0.468-1.979-0.618-3.844-0.449-5.596 0.168-1.752 0.612-3.323 1.332-4.713 0.715-1.381 1.697-2.545 2.946-3.491 1.249-0.946 2.717-1.618 4.404-2.018v0c1.687-0.399 3.294-0.453 4.821-0.163 1.521 0.291 2.92 0.892 4.198 1.803 1.279 0.917 2.385 2.122 3.32 3.613 0.935 1.492 1.636 3.227 2.104 5.206v0c0.475 2.011 0.627 3.883 0.454 5.616-0.171 1.739-0.624 3.302-1.358 4.688-0.733 1.393-1.714 2.56-2.944 3.501-1.236 0.943-2.698 1.614-4.385 2.012zM116.859 23.486v0c2.109-0.498 3.675-1.554 4.698-3.166 1.023-1.612 1.221-3.748 0.591-6.408v0l-0.851-3.601c-0.629-2.66-1.761-4.482-3.398-5.465-1.637-0.983-3.509-1.226-5.618-0.727v0c-2.109 0.498-3.675 1.554-4.698 3.166-1.023 1.612-1.221 3.748-0.591 6.408v0l0.851 3.601c0.629 2.66 1.761 4.482 3.398 5.464 1.637 0.983 3.509 1.226 5.618 0.728zM137.623 20.088l-4.093 1.748 3.676-15.707-13.443-8.176 4.323-1.847 9.794 6.256 0.138-0.059 2.482-11.5 4.093-1.748-3.459 15.07 13.777 8.578-4.322 1.846-10.129-6.656-0.138 0.059z" opacity="1" transform="matrix(1,0,0,1,0,0)" fill="#000000" class="wordmark-text-0" data-fill-palette-color="primary" id="text-0"></path></svg></g></svg></g></svg></g></svg></g><g transform="matrix(1,0,0,1,107.73276050355301,0)"><svg viewBox="0 0 180.05447899289396 150.20022372535828" height="150.20022372535828" width="180.05447899289396"><g><svg xmlns="http://www.w3.org/2000/svg" xmlns:xlink="http://www.w3.org/1999/xlink" version="1.1" x="0" y="0" viewBox="1.497 8 97.107 81.006" enable-background="new 0 0 100 100" xml:space="preserve" height="150.20022372535828" width="180.05447899289396" class="icon-icon-0" data-fill-palette-color="accent" id="icon-0"><g fill="#32fd6b" data-fill-palette-color="accent"><polygon fill="#000000" points="9.598,89.006 98.604,89.006 98.604,16.101 58.201,16.101 58.201,24.201 90.503,24.201    90.503,80.905 17.698,80.905 17.698,56.604 9.598,56.604  " data-fill-palette-color="accent"></polygon><path fill="#000000" d="M1.497 48.503H9.598V40.402H17.699V48.503H25.8V40.402H33.901V48.503H42V40.402H50.101V48.503H58.202V32.302H50.101V16.101H42V8H33.899V16.101H25.798V8H17.697V16.101H9.598V32.302H1.497zM17.698 32.302V24.201H25.799V32.302zM33.899 32.302V24.201H42V32.302z" data-fill-palette-color="accent"></path></g></svg></g></svg></g><g></g></svg></g><defs></defs></svg><rect width="395.52" height="310.0634923001214" fill="none" stroke="none" visibility="hidden"></rect></g></svg></g></svg>